<svg width="30" height="30" viewBox="0 0 30 30" fill="none" xmlns="http://www.w3.org/2000/svg">
<g id="octicon:feed-person-16" clip-path="url(#clip0_190_241)">
<path id="Vector" d="M15.2135 29.5071C11.3006 29.5071 7.54801 27.9527 4.78118 25.1859C2.01435 22.4191 0.459961 18.6664 0.459961 14.7536C0.459961 10.8407 2.01435 7.08805 4.78118 4.32122C7.54801 1.55439 11.3006 0 15.2135 0C19.1264 0 22.879 1.55439 25.6459 4.32122C28.4127 7.08805 29.9671 10.8407 29.9671 14.7536C29.9671 18.6664 28.4127 22.4191 25.6459 25.1859C22.879 27.9527 19.1264 29.5071 15.2135 29.5071ZM16.7756 14.4862C17.7977 14.1184 18.6573 13.4018 19.2031 12.4626C19.7488 11.5234 19.9457 10.4217 19.7591 9.35161C19.5724 8.28149 19.0142 7.31152 18.1827 6.61251C17.3512 5.91349 16.2998 5.53024 15.2135 5.53024C14.1272 5.53024 13.0758 5.91349 12.2443 6.61251C11.4128 7.31152 10.8546 8.28149 10.668 9.35161C10.4813 10.4217 10.6782 11.5234 11.224 12.4626C11.7697 13.4018 12.6293 14.1184 13.6515 14.4862C10.5496 15.2349 7.83674 18.027 7.83674 20.2861C7.83674 21.0146 8.10415 22.1211 9.68094 22.1211H20.7461C22.3229 22.1211 22.5903 21.0146 22.5903 20.2861C22.5903 18.0288 19.8793 15.2331 16.7756 14.4862Z" fill="#F5F5F5"/>
</g>
<defs>
<clipPath id="clip0_190_241">
<rect width="29.5071" height="29.5071" fill="white" transform="translate(0.459961)"/>
</clipPath>
</defs>
</svg>
