<svg width="334" height="42" viewBox="0 0 334 42" fill="none" xmlns="http://www.w3.org/2000/svg">
<path fill-rule="evenodd" clip-rule="evenodd" d="M12.8302 0.547368C12.6002 0.845811 11.8814 2.96591 11.2322 5.25803C8.9268 13.3968 6.55783 21.0919 5.17852 24.9255C4.63679 26.4299 3.79921 29.4313 3.31574 31.5958C2.83302 33.7597 2.17098 35.9479 1.84488 36.4584C1.51878 36.9684 1.02168 38.412 0.739463 39.6653L0.227234 41.9447H5.54397C10.7275 41.9447 10.8713 41.9027 11.32 40.2732C11.5727 39.3535 12.2362 37.3708 12.7939 35.8664C13.7548 33.2758 14.2867 31.5296 16.4869 23.7469C17.5673 19.9237 18.8021 19.1797 19.4891 21.9386C20.2284 24.9061 20.0642 26.1412 18.9315 26.1412C18.2665 26.1412 17.5696 27.4699 16.987 29.8495C16.4877 31.8894 15.896 33.9408 15.6728 34.4082C15.355 35.0738 16.1805 35.2586 19.4733 35.2586H23.68L24.4677 37.5379C24.9012 38.7919 25.2576 40.2957 25.2599 40.881C25.2636 41.7921 26.0225 41.9447 30.5607 41.9447C35.5536 41.9447 35.857 41.8663 35.857 40.5728C35.857 39.8185 35.4908 38.2461 35.0437 37.0778C34.2696 35.0568 33.5887 32.9142 31.0865 24.6216C30.4813 22.6158 29.6013 19.7438 29.1315 18.2394C26.708 10.4811 25.7706 7.3289 25.0646 4.56328C24.6379 2.89176 23.9555 1.18255 23.5491 0.764361C22.6942 -0.11395 13.4824 -0.299944 12.8302 0.547368ZM39.6401 20.9746V41.9447H44.9364H50.2327V20.9746V0.00457688H44.9364H39.6401V20.9746ZM52.5026 4.25937V8.51416H63.8518H75.201V4.25937V0.00457688H63.8518H52.5026V4.25937ZM78.7639 0.383862C78.4688 0.620914 78.2275 10.0818 78.2275 21.4074V42L83.3346 41.8207L88.4418 41.6408V20.9746V0.308491L83.8711 0.131005C81.3568 0.0331449 79.059 0.146809 78.7639 0.383862ZM90.6761 1.42082C90.4332 2.20005 90.3417 4.04602 90.4725 5.52365L90.7116 8.21025L95.6153 8.39503C101.33 8.6102 103.196 9.6119 103.196 12.465C103.196 15.2355 101.218 16.4159 96.5777 16.4159C90.5739 16.4159 90.3333 16.594 90.3333 21.0397C90.3333 24.6672 90.4468 24.9255 92.0402 24.9255C93.8296 24.9255 93.7805 24.8599 97.5355 32.2194C98.6447 34.3924 100.284 37.4699 101.18 39.0575L102.808 41.9447H108.298C111.318 41.9447 113.788 41.7806 113.788 41.58C113.788 41.2846 108.839 30.9193 106.271 25.8373C105.783 24.8696 106.409 23.9779 109.345 21.467L113.032 18.3123V12.4748V6.6378L108.681 3.32514L104.331 0.0124789L97.7247 0.00822417C91.4357 0.0045772 91.0975 0.0726548 90.6761 1.42082ZM122.679 3.80715L118.328 7.51368L118.342 20.9303L118.357 34.3468L122.955 38.1458C127.362 41.7873 127.707 41.9447 131.263 41.9447H134.974V37.6899C134.974 33.9755 134.798 33.4351 133.592 33.4351C132.832 33.4351 131.471 32.8017 130.566 32.0286C129.017 30.7041 128.921 30.0471 128.921 20.8075C128.921 11.4937 129.005 10.9297 130.577 9.75353C131.487 9.07215 132.849 8.51416 133.603 8.51416C134.796 8.51416 134.974 7.96104 134.974 4.25937V0.00457688L131.001 0.0525944C127.146 0.0993971 126.901 0.210023 122.679 3.80715ZM137.243 4.25937V8.51416H139.487C140.93 8.51416 142.009 8.93356 142.513 9.6897C143.547 11.2409 143.547 30.7084 142.513 32.2596C142.009 33.0157 140.93 33.4351 139.487 33.4351H137.243V37.6899V41.9447H141.194C144.986 41.9447 145.319 41.8055 149.517 38.4685L153.889 34.993V20.8154V6.6378L149.538 3.32514C145.408 0.18024 144.987 0.012479 141.216 0.00822417L137.243 0.00457688V4.25937ZM161.826 1.37219C161.597 2.12407 161.506 11.4925 161.622 22.1903L161.833 41.6408H167.13H172.426L172.638 22.1903C172.754 11.4925 172.662 2.12407 172.434 1.37219C172.057 0.129182 171.573 0.00457688 167.13 0.00457688C162.687 0.00457688 162.203 0.129182 161.826 1.37219ZM174.629 0.836693C174.411 1.29439 174.336 3.14097 174.464 4.93953L174.696 8.21025L179.614 8.51416C182.319 8.68132 184.958 9.03933 185.478 9.30981C186.721 9.95654 186.699 14.8678 185.449 15.7011C184.913 16.0585 182.274 16.4342 179.585 16.5357L174.696 16.7198L174.472 20.8227L174.249 24.9255H181.35H188.451L193.112 21.1813L197.773 17.4371V12.5021V7.56717L193.023 3.78587L188.274 0.00457688H181.651C176.742 0.00457688 174.924 0.220355 174.629 0.836693ZM201.304 0.409998C201.026 0.632463 200.8 8.35978 200.801 17.5811L200.801 34.3468L205.275 38.1458C209.724 41.9234 209.773 41.9447 213.976 41.9447H218.201V37.6899C218.201 33.443 218.198 33.4351 216.099 33.4351C214.93 33.4351 213.42 32.8929 212.695 32.2128C211.536 31.1247 211.392 29.2788 211.392 15.4975V0.00457688H206.6C203.964 0.00457688 201.581 0.186925 201.304 0.409998ZM226.524 15.3984C226.524 30.7029 226.514 30.7996 224.773 32.1137C223.81 32.8406 222.278 33.4351 221.369 33.4351C219.825 33.4351 219.715 33.7202 219.715 37.6899V41.9447H223.629C227.38 41.9447 227.729 41.7982 231.951 38.4497L236.358 34.9547L236.359 17.4796L236.36 0.00457688H231.442H226.524V15.3984ZM243.181 1.06828C243.187 1.65301 243.612 2.75257 244.127 3.51114C244.641 4.2697 247.445 8.64606 250.357 13.2364C253.27 17.8267 255.824 21.7192 256.032 21.8864C256.24 22.0535 259.134 26.6238 262.463 32.042L268.516 41.8936L273.623 41.9192C278.72 41.9447 278.731 41.941 278.731 40.2428C278.731 39.3067 278.41 38.2813 278.019 37.9634C277.628 37.6455 274.433 32.8729 270.918 27.3568C267.403 21.8408 262.037 13.4303 258.992 8.66612L253.456 0.00457688H248.312C243.915 0.00457688 243.171 0.158965 243.181 1.06828ZM268.279 10.6647C268.416 16.8481 268.834 21.5065 269.273 21.7575C269.689 21.9958 271.849 25.1303 274.074 28.7244C276.298 32.3179 278.255 35.2586 278.424 35.2586C278.593 35.2586 278.731 27.3264 278.731 17.6316V0.00457688H273.386H268.04L268.279 10.6647ZM286.045 0.409998C285.767 0.632463 285.54 10.069 285.54 21.3801V41.9447H290.836H296.133V20.9746V0.00457688H291.341C288.705 0.00457688 286.322 0.186925 286.045 0.409998ZM307.707 1.58189C306.959 2.44987 305.751 3.68072 305.023 4.31711C304.295 4.95412 303.699 5.73518 303.699 6.05246C303.699 6.37036 303.274 6.84872 302.753 7.11616C302.233 7.38361 301.042 8.48013 300.105 9.55355C298.58 11.3017 298.403 12.2286 298.403 18.4862C298.403 25.3078 298.461 25.5491 300.948 28.9955C304.264 33.5907 307.458 38.1804 308.795 40.2732C309.824 41.8857 310.076 41.9447 315.905 41.9447H321.946L319.065 37.5379C317.48 35.1145 315.949 32.989 315.663 32.8151C315.376 32.6407 314.782 31.8201 314.341 30.9916C313.9 30.1626 313.216 29.0739 312.822 28.5725C309.681 24.5766 305.969 18.9056 305.969 18.1039C305.969 17.5665 306.649 16.4883 307.48 15.7078C310.041 13.3032 320.446 2.2037 321.199 1.07253C321.852 0.0927119 321.381 0.00457688 315.488 0.00457688C309.429 0.00457688 308.989 0.0939284 307.707 1.58189ZM243.17 23.9123V41.9447H248.466H253.762V31.4293C253.762 25.6458 253.461 20.6543 253.093 20.3364C252.724 20.0191 250.482 16.7502 248.11 13.0729C245.738 9.39551 243.655 6.2731 243.483 6.1333C243.311 5.99411 243.17 13.9949 243.17 23.9123ZM53.0072 16.8213C52.7295 17.0438 52.5026 18.9585 52.5026 21.0761V24.9255H60.447H68.3915V21.0397C68.3915 18.0571 68.113 17.0681 67.1945 16.7849C65.5701 16.284 53.6375 16.3144 53.0072 16.8213ZM329.136 37.8649C327.394 38.8885 328.045 41.0962 330.255 41.6596C332.329 42.1884 334.087 40.853 333.813 38.9578C333.547 37.1216 331.297 36.5964 329.136 37.8649Z" fill="#F5F5F5"/>
</svg>
