<svg width="193" height="36" viewBox="0 0 193 36" fill="none" xmlns="http://www.w3.org/2000/svg">
<path fill-rule="evenodd" clip-rule="evenodd" d="M7.28768 0.461536C7.15468 0.713181 6.73904 2.50084 6.36365 4.43353C5.03054 11.2961 3.66068 17.7846 2.8631 21.017C2.54983 22.2855 2.06551 24.8163 1.78593 26.6413C1.5068 28.4659 1.12398 30.3109 0.935406 30.7415C0.746838 31.1715 0.45939 32.3887 0.296197 33.4455L0 35.3674H3.07442C6.07183 35.3674 6.15496 35.3321 6.4144 33.958C6.56053 33.1826 6.94423 31.5107 7.26668 30.2423C7.82232 28.0579 8.1299 26.5855 9.40219 20.0232C10.027 16.7995 10.741 16.1722 11.1382 18.4985C11.5657 21.0006 11.4708 22.042 10.8158 22.042C10.4312 22.042 10.0283 23.1624 9.69139 25.1689C9.40263 26.8889 9.06049 28.6186 8.93142 29.0127C8.74767 29.5739 9.225 29.7298 11.1291 29.7298H13.5616L14.0171 31.6517C14.2678 32.709 14.4739 33.977 14.4752 34.4705C14.4774 35.2388 14.9162 35.3674 17.5404 35.3674C20.4276 35.3674 20.603 35.3013 20.603 34.2107C20.603 33.5746 20.3912 32.2488 20.1327 31.2637C19.6851 29.5596 19.2913 27.753 17.8445 20.7607C17.4945 19.0694 16.9856 16.6478 16.7139 15.3793C15.3126 8.83757 14.7705 6.17967 14.3623 3.84772C14.1155 2.43831 13.7209 0.997114 13.486 0.644503C12.9916 -0.0960814 7.66482 -0.25291 7.28768 0.461536ZM22.7906 17.6856V35.3674H25.8532H28.9158V17.6856V0.0038592H25.8532H22.7906V17.6856ZM30.2283 3.59147V7.17908H36.791H43.3538V3.59147V0.0038592H36.791H30.2283V3.59147ZM45.414 0.323669C45.2434 0.52355 45.1038 8.50085 45.1038 18.0506V35.4141L48.057 35.2629L51.0103 35.1112V17.6856V0.260117L48.3672 0.110462C46.9134 0.0279475 45.5846 0.123788 45.414 0.323669ZM52.3023 1.19802C52.1618 1.85507 52.1089 3.41158 52.1846 4.6575L52.3228 6.92282L55.1583 7.07862C58.4629 7.26005 59.5418 8.10468 59.5418 10.5104C59.5418 12.8465 58.3981 13.8418 55.7149 13.8418C52.2432 13.8418 52.1041 13.9919 52.1041 17.7405C52.1041 20.7992 52.1697 21.017 53.0911 21.017C54.1258 21.017 54.0974 20.9616 56.2688 27.1672C56.9102 28.9994 57.8582 31.5943 58.3763 32.933L59.3178 35.3674H62.4924C64.2385 35.3674 65.667 35.229 65.667 35.0599C65.667 34.8108 62.8052 26.0709 61.3203 21.7858C61.0377 20.9698 61.3999 20.218 63.0975 18.1008L65.2295 15.4408V10.5186V5.59694L62.7138 2.80373L60.1981 0.0105222L56.3781 0.00693456C52.7415 0.00385947 52.5459 0.061262 52.3023 1.19802ZM70.8078 3.21016L68.2921 6.33547L68.3004 17.6482L68.3087 28.961L70.9675 32.1642C73.516 35.2347 73.7155 35.3674 75.7718 35.3674H77.9174V31.7798C77.9174 28.6478 77.8159 28.1922 77.1185 28.1922C76.6792 28.1922 75.8917 27.6582 75.3685 27.0062C74.4729 25.8895 74.4173 25.3354 74.4173 17.5447C74.4173 9.69143 74.4663 9.21581 75.375 8.22409C75.9013 7.64956 76.6889 7.17908 77.1251 7.17908C77.8146 7.17908 77.9174 6.71269 77.9174 3.59147V0.0038592L75.6205 0.0443472C73.3913 0.0838109 73.2491 0.177089 70.8078 3.21016ZM79.23 3.59147V7.17908H80.5272C81.362 7.17908 81.9859 7.53271 82.2773 8.17028C82.8749 9.47822 82.8749 25.8931 82.2773 27.201C81.9859 27.8386 81.362 28.1922 80.5272 28.1922H79.23V31.7798V35.3674H81.5142C83.707 35.3674 83.8996 35.2501 86.3269 32.4363L88.8553 29.5058V17.5514V5.59694L86.3396 2.80373C83.9512 0.151977 83.7075 0.0105222 81.5269 0.00693456L79.23 0.0038592V3.59147ZM93.4448 1.15702C93.3127 1.791 93.2597 9.6904 93.3267 18.7107L93.4492 35.1112H96.5118H99.5744L99.6969 18.7107C99.7638 9.6904 99.7109 1.791 99.5788 1.15702C99.3609 0.108925 99.0809 0.0038592 96.5118 0.0038592C93.9427 0.0038592 93.6627 0.108925 93.4448 1.15702ZM100.848 0.705493C100.722 1.09142 100.679 2.64844 100.753 4.16497L100.887 6.92282L103.731 7.17908C105.295 7.32002 106.821 7.62189 107.122 7.84996C107.84 8.39527 107.828 12.5364 107.105 13.2391C106.795 13.5404 105.269 13.8572 103.714 13.9427L100.887 14.098L100.757 17.5575L100.628 21.017H104.734H108.841L111.536 17.8599L114.231 14.7028V10.5417V6.38058L111.485 3.19222L108.739 0.0038592H104.909C102.07 0.0038592 101.019 0.185802 100.848 0.705493ZM116.273 0.345707C116.112 0.533288 115.982 7.0489 115.982 14.8243L115.983 28.961L118.57 32.1642C121.142 35.3495 121.171 35.3674 123.601 35.3674H126.044V31.7798C126.044 28.1989 126.042 28.1922 124.829 28.1922C124.153 28.1922 123.279 27.735 122.86 27.1615C122.19 26.2441 122.106 24.6876 122.106 13.0674V0.0038592H119.336C117.811 0.0038592 116.433 0.157614 116.273 0.345707ZM130.857 12.9838C130.857 25.8884 130.851 25.9699 129.844 27.078C129.287 27.691 128.401 28.1922 127.875 28.1922C126.983 28.1922 126.919 28.4326 126.919 31.7798V35.3674H129.183C131.352 35.3674 131.554 35.2439 133.995 32.4205L136.543 29.4735L136.544 14.7387L136.544 0.0038592H133.701H130.857V12.9838ZM140.489 0.900761C140.492 1.3938 140.738 2.32094 141.035 2.96056C141.333 3.60018 142.954 7.29029 144.638 11.1608C146.323 15.0313 147.799 18.3135 147.92 18.4544C148.04 18.5954 149.714 22.449 151.639 27.0175L155.139 35.3244L158.092 35.3459C161.039 35.3674 161.045 35.3643 161.045 33.9324C161.045 33.1431 160.86 32.2785 160.634 32.0104C160.408 31.7424 158.56 27.7181 156.528 23.0671C154.495 18.416 151.392 11.3243 149.631 7.3072L146.43 0.0038592H143.456C140.913 0.0038592 140.483 0.134038 140.489 0.900761ZM155.001 8.99236C155.081 14.2062 155.323 18.1341 155.576 18.3458C155.817 18.5467 157.066 21.1897 158.352 24.2202C159.639 27.2502 160.77 29.7298 160.868 29.7298C160.966 29.7298 161.045 23.0414 161.045 14.8668V0.0038592H157.955H154.864L155.001 8.99236ZM165.275 0.345707C165.114 0.533288 164.983 8.49009 164.983 18.0275V35.3674H168.045H171.108V17.6856V0.0038592H168.337C166.813 0.0038592 165.435 0.157614 165.275 0.345707ZM177.801 1.33384C177.368 2.06571 176.67 3.10355 176.249 3.64016C175.828 4.17727 175.483 4.83586 175.483 5.10339C175.483 5.37143 175.237 5.77478 174.936 6.00029C174.636 6.2258 173.947 7.15037 173.405 8.05548C172.523 9.52947 172.421 10.3111 172.421 15.5874C172.421 21.3394 172.454 21.5428 173.892 24.4488C175.81 28.3234 177.657 32.1934 178.43 33.958C179.025 35.3177 179.171 35.3674 182.541 35.3674H186.035L184.369 31.6517C183.452 29.6083 182.567 27.816 182.402 27.6694C182.236 27.5224 181.892 26.8305 181.637 26.1319C181.382 25.4328 180.987 24.5149 180.759 24.0921C178.943 20.7228 176.796 15.941 176.796 15.265C176.796 14.812 177.189 13.9028 177.67 13.2447C179.15 11.2172 185.167 1.85814 185.603 0.904349C185.98 0.078174 185.708 0.0038592 182.301 0.0038592C178.796 0.0038592 178.542 0.0791997 177.801 1.33384ZM140.482 20.1626V35.3674H143.545H146.607V26.5009C146.607 21.6243 146.433 17.4155 146.22 17.1475C146.007 16.88 144.711 14.1237 143.339 11.0229C141.967 7.92222 140.763 5.28943 140.663 5.17155C140.564 5.05419 140.482 11.8004 140.482 20.1626ZM30.5201 14.1836C30.3596 14.3712 30.2283 15.9856 30.2283 17.7712V21.017H34.8222H39.4161V17.7405C39.4161 15.2256 39.2551 14.3917 38.724 14.1529C37.7846 13.7306 30.8846 13.7562 30.5201 14.1836ZM190.192 31.9274C189.185 32.7905 189.562 34.652 190.84 35.1271C192.039 35.5729 193.055 34.4469 192.897 32.8489C192.743 31.3006 191.442 30.8578 190.192 31.9274Z" fill="#0D0D0D"/>
</svg>
