<svg width="31" height="25" viewBox="0 0 31 25" fill="none" xmlns="http://www.w3.org/2000/svg">
<path id="Vector" d="M1.25806 5.16027e-05C0.933535 5.16027e-05 0.622297 0.128971 0.39282 0.358448C0.163343 0.587925 0.0344238 0.899163 0.0344238 1.22369C0.0344238 1.54822 0.163343 1.85946 0.39282 2.08894C0.622297 2.31841 0.933535 2.44733 1.25806 2.44733H3.97455L7.18538 15.2956C7.45825 16.3846 8.4335 17.131 9.55558 17.131H24.8144C25.9193 17.131 26.8579 16.3968 27.1479 15.3323L30.3195 3.67097H27.7572L24.8132 14.6837H9.55435L6.34474 1.83551C6.21216 1.3084 5.90652 0.841033 5.47679 0.508247C5.04705 0.17546 4.51806 -0.00349097 3.97455 5.16027e-05H1.25806ZM23.2836 17.131C21.2707 17.131 19.6127 18.7891 19.6127 20.802C19.6127 22.8148 21.2707 24.4729 23.2836 24.4729C25.2965 24.4729 26.9545 22.8148 26.9545 20.802C26.9545 18.7891 25.2965 17.131 23.2836 17.131ZM12.2708 17.131C10.2579 17.131 8.59991 18.7891 8.59991 20.802C8.59991 22.8148 10.2579 24.4729 12.2708 24.4729C14.2837 24.4729 15.9418 22.8148 15.9418 20.802C15.9418 18.7891 14.2837 17.131 12.2708 17.131ZM15.9418 5.16027e-05V6.11826H12.2708L17.1654 11.0128L22.06 6.11826H18.389V5.16027e-05H15.9418ZM12.2708 19.5783C12.961 19.5783 13.4945 20.1118 13.4945 20.802C13.4945 21.4921 12.961 22.0256 12.2708 22.0256C11.5807 22.0256 11.0472 21.4921 11.0472 20.802C11.0472 20.1118 11.5807 19.5783 12.2708 19.5783ZM23.2836 19.5783C23.9737 19.5783 24.5072 20.1118 24.5072 20.802C24.5072 21.4921 23.9737 22.0256 23.2836 22.0256C22.5935 22.0256 22.06 21.4921 22.06 20.802C22.06 20.1118 22.5935 19.5783 23.2836 19.5783Z" fill="#0D0D0D"/>
</svg>
