<svg width="31" height="25" viewBox="0 0 31 25" fill="none" xmlns="http://www.w3.org/2000/svg">
<path id="Vector" d="M1.22364 5.16027e-05C0.899111 5.16027e-05 0.587873 0.128971 0.358396 0.358448C0.128919 0.587925 0 0.899163 0 1.22369C0 1.54822 0.128919 1.85946 0.358396 2.08894C0.587873 2.31841 0.899111 2.44733 1.22364 2.44733H3.94012L7.15096 15.2956C7.42383 16.3846 8.39907 17.131 9.52115 17.131H24.78C25.8849 17.131 26.8234 16.3968 27.1134 15.3323L30.2851 3.67097H27.7228L24.7787 14.6837H9.51993L6.31032 1.83551C6.17773 1.3084 5.8721 0.841033 5.44236 0.508247C5.01262 0.17546 4.48364 -0.00349097 3.94012 5.16027e-05H1.22364ZM23.2492 17.131C21.2363 17.131 19.5783 18.7891 19.5783 20.802C19.5783 22.8148 21.2363 24.4729 23.2492 24.4729C25.2621 24.4729 26.9201 22.8148 26.9201 20.802C26.9201 18.7891 25.2621 17.131 23.2492 17.131ZM12.2364 17.131C10.2235 17.131 8.56549 18.7891 8.56549 20.802C8.56549 22.8148 10.2235 24.4729 12.2364 24.4729C14.2493 24.4729 15.9073 22.8148 15.9073 20.802C15.9073 18.7891 14.2493 17.131 12.2364 17.131ZM15.9073 5.16027e-05V6.11826H12.2364L17.131 11.0128L22.0255 6.11826H18.3546V5.16027e-05H15.9073ZM12.2364 19.5783C12.9265 19.5783 13.4601 20.1118 13.4601 20.802C13.4601 21.4921 12.9265 22.0256 12.2364 22.0256C11.5463 22.0256 11.0128 21.4921 11.0128 20.802C11.0128 20.1118 11.5463 19.5783 12.2364 19.5783ZM23.2492 19.5783C23.9393 19.5783 24.4728 20.1118 24.4728 20.802C24.4728 21.4921 23.9393 22.0256 23.2492 22.0256C22.559 22.0256 22.0255 21.4921 22.0255 20.802C22.0255 20.1118 22.559 19.5783 23.2492 19.5783Z" fill="#F5F5F5"/>
</svg>
