<svg width="22" height="22" viewBox="0 0 22 22" fill="none" xmlns="http://www.w3.org/2000/svg">
<rect width="22" height="22" fill="#C2C1C1"/>
<g id="Ingressos encerrados" clip-path="url(#clip0_0_1)">
<rect width="1440" height="1024" transform="translate(-214 -767)" fill="#0D0D0D"/>
<rect id="Rectangle 75" x="-25" y="-274" width="339.853" height="436.08" rx="25" fill="white"/>
<g id="mdi:clock">
<path id="Vector" d="M11.0002 1.83594C9.79638 1.83594 8.60438 2.07304 7.49223 2.53371C6.38008 2.99438 5.36955 3.66959 4.51835 4.52079C2.79927 6.23988 1.8335 8.57145 1.8335 11.0026C1.8335 13.4338 2.79927 15.7653 4.51835 17.4844C5.36955 18.3356 6.38008 19.0108 7.49223 19.4715C8.60438 19.9322 9.79638 20.1693 11.0002 20.1693C13.4313 20.1693 15.7629 19.2035 17.482 17.4844C19.2011 15.7653 20.1668 13.4338 20.1668 11.0026C20.1668 9.79882 19.9297 8.60682 19.4691 7.49467C19.0084 6.38252 18.3332 5.372 17.482 4.52079C16.6308 3.66959 15.6202 2.99438 14.5081 2.53371C13.3959 2.07304 12.2039 1.83594 11.0002 1.83594ZM14.8502 14.8526L10.0835 11.9193V6.41927H11.4585V11.1859L15.5835 13.6609L14.8502 14.8526Z" fill="#0D0D0D"/>
</g>
</g>
<defs>
<clipPath id="clip0_0_1">
<rect width="1440" height="1024" fill="white" transform="translate(-214 -767)"/>
</clipPath>
</defs>
</svg>
