<svg width="40" height="32" viewBox="0 0 40 32" fill="none" xmlns="http://www.w3.org/2000/svg">
<path id="Vector" d="M0 30C0 30.3789 0.15051 30.7422 0.418419 31.0102C0.686328 31.2781 1.04969 31.4286 1.42857 31.4286H38.5714C38.9503 31.4286 39.3137 31.2781 39.5816 31.0102C39.8495 30.7422 40 30.3789 40 30V12.6786H0V30ZM5.89286 17.6786C5.89286 17.4891 5.96811 17.3074 6.10207 17.1735C6.23602 17.0395 6.4177 16.9643 6.60714 16.9643H14.8214C15.0109 16.9643 15.1926 17.0395 15.3265 17.1735C15.4605 17.3074 15.5357 17.4891 15.5357 17.6786V23.3929C15.5357 23.5823 15.4605 23.764 15.3265 23.8979C15.1926 24.0319 15.0109 24.1071 14.8214 24.1071H6.60714C6.4177 24.1071 6.23602 24.0319 6.10207 23.8979C5.96811 23.764 5.89286 23.5823 5.89286 23.3929V17.6786ZM38.5714 0H1.42857C1.04969 0 0.686328 0.15051 0.418419 0.418419C0.15051 0.686328 0 1.04969 0 1.42857V7.32143H40V1.42857C40 1.04969 39.8495 0.686328 39.5816 0.418419C39.3137 0.15051 38.9503 0 38.5714 0Z" fill="#0D0D0D"/>
</svg>
