<svg width="42" height="42" viewBox="0 0 42 42" fill="none" xmlns="http://www.w3.org/2000/svg">
<path d="M13.636 3.62891H28.1776C33.7173 3.62891 38.2183 8.12989 38.2183 13.6696V28.2112C38.2183 30.8741 37.1604 33.428 35.2774 35.311C33.3945 37.194 30.8406 38.2519 28.1776 38.2519H13.636C8.09632 38.2519 3.59534 33.7509 3.59534 28.2112V13.6696C3.59534 11.0066 4.65319 8.45273 6.53618 6.56975C8.41916 4.68676 10.973 3.62891 13.636 3.62891ZM13.2898 7.0912C11.6369 7.0912 10.0517 7.7478 8.88298 8.91655C7.71423 10.0853 7.05763 11.6705 7.05763 13.3233V28.5574C7.05763 32.0024 9.84478 34.7896 13.2898 34.7896H28.5239C30.1767 34.7896 31.7619 34.133 32.9306 32.9642C34.0994 31.7955 34.756 30.2103 34.756 28.5574V13.3233C34.756 9.87835 31.9688 7.0912 28.5239 7.0912H13.2898ZM29.9953 9.68792C30.5692 9.68792 31.1196 9.91591 31.5255 10.3217C31.9313 10.7275 32.1593 11.2779 32.1593 11.8519C32.1593 12.4258 31.9313 12.9762 31.5255 13.382C31.1196 13.7878 30.5692 14.0158 29.9953 14.0158C29.4214 14.0158 28.871 13.7878 28.4652 13.382C28.0594 12.9762 27.8314 12.4258 27.8314 11.8519C27.8314 11.2779 28.0594 10.7275 28.4652 10.3217C28.871 9.91591 29.4214 9.68792 29.9953 9.68792ZM20.9068 12.2846C23.2025 12.2846 25.4041 13.1966 27.0273 14.8198C28.6506 16.4431 29.5625 18.6447 29.5625 20.9404C29.5625 23.236 28.6506 25.4376 27.0273 27.0609C25.4041 28.6842 23.2025 29.5961 20.9068 29.5961C18.6112 29.5961 16.4095 28.6842 14.7863 27.0609C13.163 25.4376 12.2511 23.236 12.2511 20.9404C12.2511 18.6447 13.163 16.4431 14.7863 14.8198C16.4095 13.1966 18.6112 12.2846 20.9068 12.2846ZM20.9068 15.7469C19.5294 15.7469 18.2084 16.2941 17.2345 17.2681C16.2605 18.242 15.7134 19.563 15.7134 20.9404C15.7134 22.3178 16.2605 23.6387 17.2345 24.6127C18.2084 25.5867 19.5294 26.1338 20.9068 26.1338C22.2842 26.1338 23.6052 25.5867 24.5791 24.6127C25.5531 23.6387 26.1003 22.3178 26.1003 20.9404C26.1003 19.563 25.5531 18.242 24.5791 17.2681C23.6052 16.2941 22.2842 15.7469 20.9068 15.7469Z" fill="#D9D9D9"/>
</svg>
