<svg width="28" height="33" viewBox="0 0 28 33" fill="none" xmlns="http://www.w3.org/2000/svg">
<path d="M14.5814 0.827177C14.0152 0.29298 13.2986 0 12.5581 0C11.8177 0 11.1011 0.29298 10.5349 0.827177L1.11628 9.71855C0.766687 10.0484 0.485664 10.4597 0.292852 10.9238C0.100041 11.3879 9.45052e-05 11.8935 0 12.4053V26.9483C0 28.4573 1.09395 29.682 2.44186 29.682H7.32558C7.9732 29.682 8.5943 29.394 9.05224 28.8813C9.51018 28.3686 9.76744 27.6733 9.76744 26.9483V19.127C9.76744 19.0234 9.8042 18.9241 9.86961 18.8508C9.93503 18.7776 10.0238 18.7365 10.1163 18.7365H15C15.0925 18.7365 15.1812 18.7776 15.2467 18.8508C15.3121 18.9241 15.3488 19.0234 15.3488 19.127V24.4271C15.9429 23.8729 16.6722 23.5316 17.4419 23.4477V22.3386C16.9843 21.4886 16.743 20.5146 16.7442 19.5222C16.7442 18.8567 16.8502 18.221 17.0442 17.6321C16.8224 17.2515 16.5193 16.9389 16.1624 16.7226C15.8054 16.5062 15.4059 16.3931 15 16.3933H10.1163C9.46866 16.3933 8.84756 16.6813 8.38962 17.194C7.93168 17.7067 7.67442 18.402 7.67442 19.127V26.9483C7.67442 27.0519 7.63767 27.1512 7.57225 27.2245C7.50683 27.2977 7.4181 27.3388 7.32558 27.3388H2.44186C2.34934 27.3388 2.26061 27.2977 2.1952 27.2245C2.12978 27.1512 2.09302 27.0519 2.09302 26.9483V12.4053C2.09318 12.2348 2.1266 12.0663 2.19095 11.9117C2.2553 11.7571 2.34903 11.6201 2.46558 11.5103L11.8842 2.61889C12.0728 2.44109 12.3115 2.3436 12.5581 2.3436C12.8047 2.3436 13.0434 2.44109 13.2321 2.61889L22.6507 11.5103C22.7673 11.6201 22.861 11.7571 22.9253 11.9117C22.9897 12.0663 23.0231 12.2348 23.0233 12.4053V14.2798C23.827 14.5485 24.5442 15.0421 25.1163 15.6951V12.4053C25.1162 11.8935 25.0162 11.3879 24.8234 10.9238C24.6306 10.4597 24.3496 10.0484 24 9.71855L14.5814 0.827177ZM25.1163 19.5222C25.1163 20.5579 24.7488 21.5512 24.0946 22.2836C23.4404 23.0159 22.5531 23.4274 21.6279 23.4274C20.7027 23.4274 19.8155 23.0159 19.1613 22.2836C18.5071 21.5512 18.1395 20.5579 18.1395 19.5222C18.1395 18.4865 18.5071 17.4932 19.1613 16.7608C19.8155 16.0284 20.7027 15.617 21.6279 15.617C22.5531 15.617 23.4404 16.0284 24.0946 16.7608C24.7488 17.4932 25.1163 18.4865 25.1163 19.5222ZM27.907 27.9184C27.907 30.349 26.1126 32.7999 21.6279 32.7999C17.1433 32.7999 15.3488 30.3583 15.3488 27.9184V27.7575C15.3488 26.2266 16.4567 24.9895 17.8228 24.9895H25.433C26.8005 24.9895 27.907 26.2282 27.907 27.7575V27.9184Z" fill="#D9D9D9"/>
</svg>
