<svg width="19" height="18" viewBox="0 0 19 18" fill="none" xmlns="http://www.w3.org/2000/svg">
<path d="M17.5 14.7469C17.8852 14.7471 18.2556 14.9034 18.5344 15.1834C18.8132 15.4634 18.979 15.8456 18.9975 16.2509C19.016 16.6562 18.8858 17.0535 18.6338 17.3604C18.3818 17.6673 18.0274 17.8604 17.644 17.8995L17.5 17.9069H1.5C1.11478 17.9067 0.744405 17.7504 0.465613 17.4704C0.186821 17.1904 0.020988 16.8081 0.00247574 16.4028C-0.0160365 15.9975 0.114192 15.6002 0.366175 15.2933C0.618159 14.9864 0.972581 14.7934 1.356 14.7542L1.5 14.7469H17.5ZM17.5 7.37343C17.8978 7.37343 18.2794 7.53989 18.5607 7.83621C18.842 8.13252 19 8.5344 19 8.95345C19 9.3725 18.842 9.77438 18.5607 10.0707C18.2794 10.367 17.8978 10.5335 17.5 10.5335H1.5C1.10218 10.5335 0.720644 10.367 0.43934 10.0707C0.158035 9.77438 0 9.3725 0 8.95345C0 8.5344 0.158035 8.13252 0.43934 7.83621C0.720644 7.53989 1.10218 7.37343 1.5 7.37343H17.5ZM17.5 0C17.8978 0 18.2794 0.166466 18.5607 0.462777C18.842 0.759089 19 1.16097 19 1.58002C19 1.99907 18.842 2.40095 18.5607 2.69726C18.2794 2.99357 17.8978 3.16004 17.5 3.16004H1.5C1.10218 3.16004 0.720644 2.99357 0.43934 2.69726C0.158035 2.40095 0 1.99907 0 1.58002C0 1.16097 0.158035 0.759089 0.43934 0.462777C0.720644 0.166466 1.10218 0 1.5 0H17.5Z" fill="#D9D9D9"/>
</svg>
