<svg width="32" height="23" viewBox="0 0 32 23" fill="none" xmlns="http://www.w3.org/2000/svg">
<path id="Vector" d="M30.204 8.40563C30.7107 8.30253 31.1663 8.02753 31.4936 7.62717C31.8208 7.22681 31.9998 6.72567 32.0001 6.20856V2.72998C32.0001 2.135 31.7637 1.5644 31.343 1.14369C30.9223 0.722985 30.3517 0.486633 29.7567 0.486633H2.83661C2.24164 0.486633 1.67103 0.722985 1.25033 1.14369C0.829617 1.5644 0.593266 2.135 0.593266 2.72998V6.20856C0.59355 6.72567 0.772475 7.22681 1.09976 7.62717C1.42705 8.02753 1.88261 8.30253 2.38934 8.40563C3.14704 8.56276 3.82743 8.97623 4.3159 9.57639C4.80436 10.1765 5.07106 10.9267 5.07106 11.7005C5.07106 12.4744 4.80436 13.2245 4.3159 13.8247C3.82743 14.4248 3.14704 14.8383 2.38934 14.9954C1.88166 15.0987 1.42539 15.3746 1.09799 15.7761C0.77059 16.1776 0.592255 16.6801 0.593266 17.1981V20.6767C0.593266 21.2717 0.829617 21.8423 1.25033 22.263C1.67103 22.6837 2.24164 22.9201 2.83661 22.9201H29.7567C30.3517 22.9201 30.9223 22.6837 31.343 22.263C31.7637 21.8423 32.0001 21.2717 32.0001 20.6767V17.1981C31.9998 16.681 31.8208 16.1799 31.4936 15.7795C31.1663 15.3792 30.7107 15.1042 30.204 15.0011C29.4463 14.8439 28.7659 14.4305 28.2774 13.8303C27.789 13.2301 27.5223 12.48 27.5223 11.7061C27.5223 10.9323 27.789 10.1822 28.2774 9.582C28.7659 8.98184 29.4463 8.56837 30.204 8.41124V8.40563ZM2.83661 17.1995C4.10367 16.9414 5.24261 16.2534 6.06062 15.2519C6.87864 14.2505 7.32547 12.9971 7.32547 11.704C7.32547 10.411 6.87864 9.1576 6.06062 8.15615C5.24261 7.15469 4.10367 6.46667 2.83661 6.20856V2.72998H10.6883V20.6767H2.83661V17.1995ZM29.7567 17.1995V20.6767H12.9316V2.72998H29.7567V6.20716C28.4897 6.46527 27.3507 7.15329 26.5327 8.15475C25.7147 9.1562 25.2679 10.4096 25.2679 11.7026C25.2679 12.9957 25.7147 14.2491 26.5327 15.2505C27.3507 16.252 28.4897 16.94 29.7567 17.1981V17.1995Z" fill="#F5F5F5"/>
</svg>
