<svg width="32" height="23" viewBox="0 0 32 23" fill="none" xmlns="http://www.w3.org/2000/svg">
<path id="Vector" d="M30.2039 8.40563C30.7106 8.30253 31.1661 8.02753 31.4934 7.62717C31.8207 7.22681 31.9996 6.72567 31.9999 6.20856V2.72998C31.9999 2.135 31.7636 1.5644 31.3429 1.14369C30.9222 0.722985 30.3516 0.486633 29.7566 0.486633H2.83649C2.24151 0.486633 1.67091 0.722985 1.2502 1.14369C0.829495 1.5644 0.593144 2.135 0.593144 2.72998V6.20856C0.593427 6.72567 0.772353 7.22681 1.09964 7.62717C1.42693 8.02753 1.88249 8.30253 2.38922 8.40563C3.14692 8.56276 3.8273 8.97623 4.31577 9.57639C4.80424 10.1765 5.07094 10.9267 5.07094 11.7005C5.07094 12.4744 4.80424 13.2245 4.31577 13.8247C3.8273 14.4248 3.14692 14.8383 2.38922 14.9954C1.88154 15.0987 1.42526 15.3746 1.09787 15.7761C0.770468 16.1776 0.592133 16.6801 0.593144 17.1981V20.6767C0.593144 21.2717 0.829495 21.8423 1.2502 22.263C1.67091 22.6837 2.24151 22.9201 2.83649 22.9201H29.7566C30.3516 22.9201 30.9222 22.6837 31.3429 22.263C31.7636 21.8423 31.9999 21.2717 31.9999 20.6767V17.1981C31.9996 16.681 31.8207 16.1799 31.4934 15.7795C31.1661 15.3792 30.7106 15.1042 30.2039 15.0011C29.4462 14.8439 28.7658 14.4305 28.2773 13.8303C27.7888 13.2301 27.5221 12.48 27.5221 11.7061C27.5221 10.9323 27.7888 10.1822 28.2773 9.582C28.7658 8.98184 29.4462 8.56837 30.2039 8.41124V8.40563ZM2.83649 17.1995C4.10354 16.9414 5.24249 16.2534 6.0605 15.2519C6.87852 14.2505 7.32535 12.9971 7.32535 11.704C7.32535 10.411 6.87852 9.1576 6.0605 8.15615C5.24249 7.15469 4.10354 6.46667 2.83649 6.20856V2.72998H10.6882V20.6767H2.83649V17.1995ZM29.7566 17.1995V20.6767H12.9315V2.72998H29.7566V6.20716C28.4895 6.46527 27.3506 7.15329 26.5326 8.15475C25.7146 9.1562 25.2677 10.4096 25.2677 11.7026C25.2677 12.9957 25.7146 14.2491 26.5326 15.2505C27.3506 16.252 28.4895 16.94 29.7566 17.1981V17.1995Z" fill="#0D0D0D"/>
</svg>
