<svg width="41" height="41" viewBox="0 0 41 41" fill="none" xmlns="http://www.w3.org/2000/svg">
<path d="M38.2755 10.3522C36.9969 10.9334 35.6187 11.3153 34.1907 11.498C35.6519 10.6179 36.7811 9.22309 37.3124 7.546C35.9342 8.37625 34.4066 8.95742 32.7959 9.28951C31.4841 7.86149 29.641 7.03125 27.5487 7.03125C23.6466 7.03125 20.4585 10.2194 20.4585 14.1547C20.4585 14.7193 20.5249 15.2673 20.6411 15.782C14.7298 15.4831 9.46603 12.6437 5.9624 8.34304C5.34802 9.38914 4.99932 10.6179 4.99932 11.9131C4.99932 14.3872 6.24468 16.5791 8.17085 17.8244C6.9919 17.8244 5.89598 17.4923 4.9329 16.9942V17.044C4.9329 20.4978 7.39042 23.3871 10.645 24.0346C9.60007 24.3206 8.5031 24.3604 7.44023 24.1509C7.89123 25.5664 8.7745 26.805 9.96586 27.6926C11.1572 28.5802 12.5968 29.0721 14.0822 29.0991C11.5643 31.0925 8.44316 32.1699 5.23178 32.1544C4.66722 32.1544 4.10265 32.1212 3.53809 32.0548C6.69301 34.0806 10.4457 35.2596 14.4641 35.2596C27.5487 35.2596 34.7387 24.4 34.7387 14.985C34.7387 14.6695 34.7387 14.3706 34.7221 14.0551C36.1169 13.0588 37.3124 11.7969 38.2755 10.3522Z" fill="#D9D9D9"/>
</svg>
