<svg width="40" height="27" viewBox="0 0 40 27" fill="none" xmlns="http://www.w3.org/2000/svg">
<path d="M15.9407 18.7515L26.2822 13.1261L15.9407 7.50061V18.7515ZM38.975 4.06908C39.234 4.9504 39.4133 6.13175 39.5329 7.63187C39.6724 9.13199 39.7322 10.4258 39.7322 11.5509L39.8517 13.1261C39.8517 17.2326 39.5329 20.2516 38.975 22.183C38.4768 23.8707 37.3211 24.9583 35.5278 25.4271C34.5913 25.6708 32.8777 25.8396 30.2474 25.9521C27.6571 26.0834 25.2859 26.1396 23.0941 26.1396L19.9259 26.2521C11.5769 26.2521 6.37627 25.9521 4.32391 25.4271C2.53058 24.9583 1.37488 23.8707 0.876738 22.183C0.617702 21.3017 0.438369 20.1204 0.318814 18.6203C0.179333 17.1201 0.119555 15.8263 0.119555 14.7012L0 13.1261C0 9.01948 0.318814 6.00049 0.876738 4.06908C1.37488 2.38144 2.53058 1.29385 4.32391 0.825067C5.26043 0.581297 6.97405 0.412533 9.60426 0.300024C12.1946 0.168763 14.5658 0.112509 16.7576 0.112509L19.9259 0C28.2748 0 33.4754 0.300024 35.5278 0.825067C37.3211 1.29385 38.4768 2.38144 38.975 4.06908Z" fill="#D9D9D9"/>
</svg>
